<svg width="48" height="18" viewBox="0 0 48 18" fill="none" xmlns="http://www.w3.org/2000/svg">
<path d="M5.184 17C5.008 17 4.896 16.92 4.848 16.76L0.6 0.511999L0.576 0.415999C0.576 0.271999 0.664 0.199999 0.84 0.199999H3.816C3.976 0.199999 4.08 0.279999 4.128 0.439999L6.408 10.208C6.424 10.272 6.448 10.304 6.48 10.304C6.512 10.304 6.536 10.272 6.552 10.208L8.76 0.464C8.808 0.287999 8.912 0.199999 9.072 0.199999H11.976C12.152 0.199999 12.264 0.279999 12.312 0.439999L14.712 10.208C14.728 10.256 14.752 10.288 14.784 10.304C14.816 10.304 14.84 10.272 14.856 10.208L17.064 0.464C17.112 0.287999 17.216 0.199999 17.376 0.199999H20.208C20.432 0.199999 20.52 0.303999 20.472 0.511999L16.536 16.76C16.488 16.92 16.376 17 16.2 17H13.344C13.184 17 13.08 16.92 13.032 16.76L10.584 6.368C10.568 6.304 10.544 6.272 10.512 6.272C10.48 6.272 10.456 6.304 10.44 6.368L8.16 16.736C8.128 16.912 8.024 17 7.848 17H5.184ZM32.4949 8.984C32.8149 9.72 32.9749 10.568 32.9749 11.528C32.9749 12.392 32.8309 13.192 32.5429 13.928C32.1589 14.952 31.5109 15.752 30.5989 16.328C29.7029 16.904 28.6389 17.192 27.4069 17.192C26.1909 17.192 25.1189 16.888 24.1909 16.28C23.2789 15.672 22.6229 14.848 22.2229 13.808C21.9989 13.184 21.8709 12.512 21.8389 11.792C21.8389 11.6 21.9349 11.504 22.1269 11.504H24.9589C25.1509 11.504 25.2469 11.6 25.2469 11.792C25.3109 12.32 25.3989 12.712 25.5109 12.968C25.6549 13.384 25.8869 13.712 26.2069 13.952C26.5429 14.176 26.9349 14.288 27.3829 14.288C28.2789 14.288 28.8949 13.896 29.2309 13.112C29.4549 12.632 29.5669 12.072 29.5669 11.432C29.5669 10.68 29.4469 10.064 29.2069 9.584C28.8389 8.832 28.2229 8.456 27.3589 8.456C27.1829 8.456 26.9989 8.512 26.8069 8.624C26.6149 8.72 26.3829 8.864 26.1109 9.056C26.0469 9.104 25.9829 9.128 25.9189 9.128C25.8229 9.128 25.7509 9.08 25.7029 8.984L24.2869 6.992C24.2549 6.944 24.2389 6.888 24.2389 6.824C24.2389 6.728 24.2709 6.648 24.3349 6.584L28.1509 3.248C28.1829 3.216 28.1909 3.184 28.1749 3.152C28.1749 3.12 28.1509 3.104 28.1029 3.104H22.4629C22.3829 3.104 22.3109 3.08 22.2469 3.032C22.1989 2.968 22.1749 2.896 22.1749 2.816V0.487999C22.1749 0.408 22.1989 0.343999 22.2469 0.295999C22.3109 0.231999 22.3829 0.199999 22.4629 0.199999H32.4709C32.5509 0.199999 32.6149 0.231999 32.6629 0.295999C32.7269 0.343999 32.7589 0.408 32.7589 0.487999V3.128C32.7589 3.256 32.7029 3.376 32.5909 3.488L29.4469 6.368C29.4149 6.4 29.3989 6.432 29.3989 6.464C29.4149 6.496 29.4549 6.512 29.5189 6.512C30.9109 6.784 31.9029 7.608 32.4949 8.984Z" fill="white"/>
<path d="M47.1118 2.816C47.1118 2.896 47.0798 2.968 47.0158 3.032C46.9678 3.08 46.9038 3.104 46.8238 3.104H38.9758C38.8958 3.104 38.8558 3.144 38.8558 3.224V6.944C38.8558 7.024 38.8958 7.064 38.9758 7.064H44.1358C44.2158 7.064 44.2798 7.096 44.3278 7.16C44.3918 7.208 44.4238 7.272 44.4238 7.352V9.68C44.4238 9.76 44.3918 9.832 44.3278 9.896C44.2798 9.944 44.2158 9.968 44.1358 9.968H38.9758C38.8958 9.968 38.8558 10.008 38.8558 10.088V16.712C38.8558 16.792 38.8238 16.864 38.7598 16.928C38.7118 16.976 38.6478 17 38.5678 17H35.7598C35.6798 17 35.6078 16.976 35.5438 16.928C35.4958 16.864 35.4718 16.792 35.4718 16.712V0.487999C35.4718 0.408 35.4958 0.343999 35.5438 0.295999C35.6078 0.231999 35.6798 0.199999 35.7598 0.199999H46.8238C46.9038 0.199999 46.9678 0.231999 47.0158 0.295999C47.0798 0.343999 47.1118 0.408 47.1118 0.487999V2.816Z" fill="#55E5C5"/>
</svg>
