<svg width="20" height="20" viewBox="0 0 20 20" fill="none" xmlns="http://www.w3.org/2000/svg">
  <path d="M7.5 2.5H4.16667C3.24619 2.5 2.5 3.24619 2.5 4.16667V7.5C2.5 8.42047 3.24619 9.16667 4.16667 9.16667H7.5C8.42047 9.16667 9.16667 8.42047 9.16667 7.5V4.16667C9.16667 3.24619 8.42047 2.5 7.5 2.5Z" stroke="#71767a" stroke-width="2" stroke-linecap="round" stroke-linejoin="round" />
  <path d="M5.8335 9.16669V12.5C5.8335 12.942 6.00909 13.366 6.32165 13.6785C6.63421 13.9911 7.05814 14.1667 7.50016 14.1667H10.8335" stroke="#71767a" stroke-width="2" stroke-linecap="round" stroke-linejoin="round" />
  <path d="M15.8335 10.8333H12.5002C11.5797 10.8333 10.8335 11.5795 10.8335 12.5V15.8333C10.8335 16.7538 11.5797 17.5 12.5002 17.5H15.8335C16.754 17.5 17.5002 16.7538 17.5002 15.8333V12.5C17.5002 11.5795 16.754 10.8333 15.8335 10.8333Z" stroke="#71767a" stroke-width="2" stroke-linecap="round" stroke-linejoin="round" />
</svg>
